<svg width="24" height="24" viewBox="0 0 24 24" fill="none" xmlns="http://www.w3.org/2000/svg">
  <path d="M8 2V5" stroke="currentColor" stroke-width="1.5" stroke-miterlimit="10" stroke-linecap="round" stroke-linejoin="round"/>
  <path d="M16 2V5" stroke="currentColor" stroke-width="1.5" stroke-miterlimit="10" stroke-linecap="round" stroke-linejoin="round"/>
  <path d="M3.5 9.09H20.5" stroke="currentColor" stroke-width="1.5" stroke-miterlimit="10" stroke-linecap="round" stroke-linejoin="round"/>
  <path d="M21 8.5V17C21 20 19.5 22 16 22H8C4.5 22 3 20 3 17V8.5C3 5.5 4.5 3.5 8 3.5H16C19.5 3.5 21 5.5 21 8.5Z" stroke="currentColor" stroke-width="1.5" stroke-miterlimit="10" stroke-linecap="round" stroke-linejoin="round"/>
  <path d="M12 14C10.9 14 10 13.1 10 12C10 10.9 10.9 10 12 10C13.1 10 14 10.9 14 12C14 13.1 13.1 14 12 14Z" fill="currentColor"/>
  <path d="M12 18C11.45 18 11 17.55 11 17C11 16.45 11.45 16 12 16C12.55 16 13 16.45 13 17C13 17.55 12.55 18 12 18Z" fill="currentColor"/>
  <path d="M8 14C7.45 14 7 13.55 7 13C7 12.45 7.45 12 8 12C8.55 12 9 12.45 9 13C9 13.55 8.55 14 8 14Z" fill="currentColor"/>
  <path d="M16 14C15.45 14 15 13.55 15 13C15 12.45 15.45 12 16 12C16.55 12 17 12.45 17 13C17 13.55 16.55 14 16 14Z" fill="currentColor"/>
</svg>





