<svg width="20" height="20" viewBox="0 0 20 20" fill="none" xmlns="http://www.w3.org/2000/svg">
<path d="M8.4157 9.12504L14.0519 9.12504L11.3464 6.08158C11.0254 5.72047 11.0576 5.16731 11.4186 4.84623C11.7797 4.52524 12.3329 4.55751 12.654 4.9185L16.654 9.4185C16.9487 9.75002 16.9487 10.2501 16.654 10.5816L12.654 15.0816L12.5915 15.1451C12.2649 15.4452 11.7573 15.4549 11.4186 15.1538C11.0576 14.8328 11.0254 14.2796 11.3464 13.9185L14.0519 10.875L8.4157 10.875C6.96123 10.875 5.61019 11.6144 4.82488 12.8311L4.75066 12.9502L4.70037 13.0245C4.43496 13.3797 3.93845 13.4836 3.54998 13.2505C3.16151 13.0174 3.01914 12.5303 3.20769 12.1289L3.24969 12.0498L3.35467 11.8819C4.46151 10.1671 6.36574 9.12504 8.4157 9.12504Z" fill="#5E6695"/>
</svg>
