<svg width="20" height="20" viewBox="0 0 20 20" fill="none" xmlns="http://www.w3.org/2000/svg">
<path d="M11.5843 9.12504L5.94807 9.12504L8.65363 6.08158C8.97462 5.72047 8.94235 5.16731 8.58137 4.84623C8.22025 4.52524 7.6671 4.55751 7.34602 4.9185L3.34602 9.4185C3.05133 9.75002 3.05133 10.2501 3.34602 10.5816L7.34602 15.0816L7.40852 15.1451C7.73514 15.4452 8.2427 15.4549 8.58137 15.1538C8.94235 14.8328 8.97463 14.2796 8.65363 13.9185L5.94807 10.875L11.5843 10.875C13.0388 10.875 14.3898 11.6144 15.1751 12.8311L15.2493 12.9502L15.2996 13.0245C15.565 13.3797 16.0615 13.4836 16.45 13.2505C16.8385 13.0174 16.9809 12.5303 16.7923 12.1289L16.7503 12.0498L16.6453 11.8819C15.5385 10.1671 13.6343 9.12504 11.5843 9.12504Z" fill="#5E6695"/>
</svg>
