<svg width="40" height="40" viewBox="0 0 40 40" fill="none" xmlns="http://www.w3.org/2000/svg">
<path d="M28.5 32.5C28.5 31.3157 27.7804 30.0605 26.2393 29.0332C24.7084 28.0128 22.5069 27.333 20 27.333C17.4931 27.333 15.2916 28.0128 13.7607 29.0332C12.2196 30.0605 11.5 31.3157 11.5 32.5C11.5 33.3284 10.8284 34 10 34C9.17157 34 8.5 33.3284 8.5 32.5C8.5 30.0009 10.0187 27.9223 12.0967 26.5371C14.185 25.1451 16.9837 24.333 20 24.333C23.0163 24.333 25.815 25.1451 27.9033 26.5371C29.9813 27.9223 31.5 30.0009 31.5 32.5C31.5 33.3284 30.8284 34 30 34C29.1716 34 28.5 33.3284 28.5 32.5ZM25.167 14.167C25.167 12.7968 24.6222 11.4826 23.6533 10.5137C22.6844 9.54473 21.3703 9 20 9C18.6297 9 17.3156 9.54473 16.3467 10.5137C15.3778 11.4826 14.833 12.7968 14.833 14.167C14.8331 15.5372 15.3778 16.8515 16.3467 17.8203C17.3156 18.7891 18.6298 19.333 20 19.333C21.3702 19.333 22.6844 18.7891 23.6533 17.8203C24.6222 16.8515 25.1669 15.5372 25.167 14.167ZM28.167 14.167C28.1669 16.3328 27.3059 18.4099 25.7744 19.9414C24.2429 21.4729 22.1659 22.333 20 22.333C17.8341 22.333 15.7571 21.4729 14.2256 19.9414C12.6941 18.4099 11.8331 16.3328 11.833 14.167C11.833 12.0011 12.694 9.92315 14.2256 8.3916C15.7571 6.86026 17.8342 6 20 6C22.1658 6 24.2429 6.86026 25.7744 8.3916C27.306 9.92315 28.167 12.0011 28.167 14.167Z" fill="#5E6695"/>
</svg>
