<svg width="20" height="20" viewBox="0 0 20 20" fill="none" xmlns="http://www.w3.org/2000/svg">
<path d="M11.4185 4.84671C11.7571 4.54568 12.2647 4.55535 12.5913 4.8555L12.6538 4.91898L16.6538 9.41898C16.9485 9.7505 16.9485 10.2505 16.6538 10.5821L12.6538 15.0821C12.3327 15.443 11.7796 15.4753 11.4185 15.1543C11.0575 14.8332 11.0252 14.2801 11.3462 13.919L14.0513 10.8755H4C3.51675 10.8755 3.125 10.4838 3.125 10.0005C3.125 9.51727 3.51675 9.12552 4 9.12552H14.0513L11.3462 6.08206L11.29 6.01175C11.0305 5.65229 11.0801 5.14769 11.4185 4.84671Z" fill="#5E6695"/>
</svg>
