<svg width="164" height="47" viewBox="0 0 164 47" fill="none" xmlns="http://www.w3.org/2000/svg">
<g clip-path="url(#clip0_39_47)">
<path d="M7.25 -9H12L-14.25 55H-19L7.25 -9Z" fill="#BDBDBD"/>
<path d="M17.25 -9H22L-4.25 55H-9L17.25 -9Z" fill="#BDBDBD"/>
<path d="M27.25 -9H32L5.75 55H1L27.25 -9Z" fill="#BDBDBD"/>
<path d="M37.25 -9H42L15.75 55H11L37.25 -9Z" fill="#BDBDBD"/>
<path d="M47.25 -9H52L25.75 55H21L47.25 -9Z" fill="#BDBDBD"/>
<path d="M57.25 -9H62L35.75 55H31L57.25 -9Z" fill="#BDBDBD"/>
<path d="M67.25 -9H72L45.75 55H41L67.25 -9Z" fill="#BDBDBD"/>
<path d="M77.25 -9H82L55.75 55H51L77.25 -9Z" fill="#BDBDBD"/>
<path d="M87.25 -9H92L65.75 55H61L87.25 -9Z" fill="#BDBDBD"/>
<path d="M97.25 -9H102L75.75 55H71L97.25 -9Z" fill="#BDBDBD"/>
<path d="M107.25 -9H112L85.75 55H81L107.25 -9Z" fill="#BDBDBD"/>
<path d="M117.25 -9H122L95.75 55H91L117.25 -9Z" fill="#BDBDBD"/>
<path d="M127.25 -9H132L105.75 55H101L127.25 -9Z" fill="#BDBDBD"/>
<path d="M137.25 -9H142L115.75 55H111L137.25 -9Z" fill="#BDBDBD"/>
<path d="M147.25 -9H152L125.75 55H121L147.25 -9Z" fill="#BDBDBD"/>
<path d="M157.25 -9H162L135.75 55H131L157.25 -9Z" fill="#BDBDBD"/>
<path d="M167.25 -9H172L145.75 55H141L167.25 -9Z" fill="#BDBDBD"/>
<path d="M177.25 -9H182L155.75 55H151L177.25 -9Z" fill="#BDBDBD"/>
</g>
<defs>
<clipPath id="clip0_39_47">
<rect width="164" height="46.3571" rx="4" fill="white"/>
</clipPath>
</defs>
</svg>
